<?xml version="1.0" standalone="no"?>
<!DOCTYPE svg PUBLIC "-//W3C//DTD SVG 20010904//EN"
 "http://www.w3.org/TR/2001/REC-SVG-20010904/DTD/svg10.dtd">
<svg version="1.0" xmlns="http://www.w3.org/2000/svg"
 width="1640.000000pt" height="1640.000000pt" viewBox="0 0 1640.000000 1640.000000"
 preserveAspectRatio="xMidYMid meet">
<metadata>
Created by potrace 1.14, written by Peter Selinger 2001-2017
</metadata>
<g transform="translate(0.000000,1640.000000) scale(0.100000,-0.100000)"
fill="#000000" stroke="none">
<path d="M11170 14155 c-92 -13 -118 -21 -209 -67 -58 -29 -123 -66 -145 -83
-23 -16 -60 -42 -84 -58 -70 -45 -285 -273 -372 -392 -38 -52 -94 -125 -146
-187 -7 -10 -31 -44 -51 -75 -21 -32 -64 -89 -95 -126 -31 -38 -67 -88 -79
-110 -11 -23 -35 -58 -53 -78 -17 -20 -39 -49 -48 -65 -10 -16 -37 -52 -60
-80 -24 -28 -52 -66 -63 -85 -11 -18 -27 -45 -36 -59 -30 -49 -87 -166 -115
-240 -16 -41 -41 -86 -57 -101 -30 -28 -47 -74 -47 -129 0 -24 -8 -44 -25 -63
-22 -23 -34 -27 -81 -27 -54 0 -112 19 -144 46 -28 24 -112 65 -129 63 -30 -3
-37 1 -101 56 -63 53 -92 66 -105 45 -11 -17 -45 -11 -92 17 -40 23 -49 25
-77 15 -38 -14 -208 -5 -253 14 -18 7 -74 13 -129 13 -90 1 -100 3 -144 31
-59 38 -80 38 -110 0 -28 -33 -46 -36 -74 -15 -28 21 -60 19 -82 -6 -20 -22
-112 -69 -135 -69 -8 0 -22 7 -32 14 -13 10 -42 13 -102 10 -48 -2 -87 1 -90
6 -11 17 -49 11 -90 -15 -22 -13 -48 -25 -57 -25 -10 0 -26 -10 -37 -22 -11
-13 -34 -36 -51 -53 -17 -16 -60 -58 -95 -92 l-64 -63 -75 0 c-87 0 -116 -18
-116 -70 0 -25 -29 -92 -48 -111 -4 -4 -18 -2 -32 4 -14 6 -34 11 -45 13 -11
1 -36 5 -56 9 -34 7 -37 5 -50 -24 -8 -17 -25 -35 -39 -40 -14 -5 -37 -20 -51
-34 -14 -14 -40 -32 -56 -41 -17 -8 -45 -33 -62 -55 -17 -21 -42 -42 -56 -45
-20 -5 -24 -11 -20 -29 3 -12 1 -29 -4 -37 -9 -12 -14 -12 -44 2 -44 21 -74
13 -93 -24 -14 -27 -19 -29 -52 -23 -32 5 -41 2 -62 -19 -13 -15 -33 -26 -44
-26 -12 0 -45 -16 -75 -36 -40 -27 -70 -38 -121 -46 -57 -8 -69 -14 -79 -34
-6 -14 -22 -29 -35 -34 -25 -9 -56 -56 -56 -84 0 -8 -14 -24 -30 -36 -26 -18
-30 -27 -27 -56 5 -41 4 -42 -59 -49 -57 -7 -61 -10 -45 -28 11 -14 6 -46 -8
-48 -3 -1 -34 -2 -68 -3 -52 -2 -67 -6 -90 -28 -16 -14 -42 -29 -60 -33 -43
-9 -56 -26 -43 -59 9 -24 7 -29 -20 -44 -35 -20 -36 -25 -10 -67 11 -18 18
-39 15 -48 -7 -17 -47 -37 -74 -37 -29 0 -57 -29 -91 -95 -17 -33 -39 -66 -48
-72 -9 -7 -13 -13 -9 -13 13 0 -25 -86 -46 -102 -13 -10 -40 -18 -64 -18 -28
0 -43 -4 -43 -13 0 -16 39 -41 65 -43 40 -2 80 -15 105 -34 19 -15 21 -20 8
-20 -9 0 -39 -18 -67 -40 -41 -33 -51 -46 -51 -71 0 -16 6 -32 13 -35 8 -3 24
-18 35 -34 29 -39 17 -72 -37 -96 -36 -16 -40 -21 -34 -43 9 -41 31 -78 49
-85 23 -9 26 -4 31 47 4 37 10 45 37 57 17 7 35 18 39 24 6 8 10 7 14 -1 2 -7
10 -13 16 -13 7 0 23 -17 37 -38 19 -28 25 -51 25 -97 1 -55 18 -105 37 -105
4 0 15 16 24 36 42 88 211 264 253 264 35 0 45 -26 34 -88 -14 -83 -1 -236 26
-297 39 -88 44 -96 103 -147 52 -45 57 -53 52 -81 -9 -56 -12 -57 -172 -50
-158 6 -223 -5 -287 -47 -36 -24 -95 -27 -95 -5 0 8 -6 15 -14 15 -17 0 -20
98 -3 119 13 15 -15 41 -45 41 -10 0 -36 16 -57 35 -23 21 -42 32 -46 25 -9
-15 -31 -12 -49 6 -22 22 -20 40 8 66 14 13 31 45 38 71 16 60 5 81 -43 82
-19 1 -41 3 -49 6 -10 3 -15 -4 -16 -22 -1 -38 -10 -47 -55 -61 -23 -6 -53
-24 -67 -40 -15 -16 -42 -31 -62 -34 -60 -10 -69 -14 -82 -42 -8 -16 -33 -37
-63 -51 -28 -13 -59 -29 -70 -34 -11 -6 -32 -17 -46 -24 -25 -12 -42 -28 -93
-85 -14 -16 -35 -28 -48 -28 -35 0 -50 -14 -67 -61 -10 -27 -27 -48 -46 -59
-26 -15 -30 -23 -31 -61 -1 -85 -137 -329 -183 -329 -15 0 -18 -47 -9 -111 10
-64 4 -129 -12 -129 -5 0 -7 -6 -4 -14 3 -8 1 -17 -5 -21 -39 -23 -94 -273
-72 -322 6 -13 8 -41 5 -62 -7 -43 1 -52 55 -60 50 -9 48 -25 -4 -45 -33 -13
-45 -23 -45 -38 0 -19 5 -20 63 -16 61 4 177 49 177 69 0 5 -14 16 -32 25
l-32 17 22 17 c12 10 47 22 79 28 32 6 63 11 68 12 28 6 55 -2 55 -15 0 -36
43 -39 207 -16 300 42 348 51 452 81 57 16 123 32 145 35 89 13 245 47 326 72
47 14 110 27 140 28 68 2 148 21 175 41 20 15 20 15 -2 34 -13 10 -23 21 -23
23 0 8 55 24 137 41 39 8 82 21 95 29 42 28 198 69 232 63 17 -4 49 -9 71 -12
100 -11 118 -15 132 -29 22 -23 37 -18 67 20 29 35 59 45 70 23 5 -10 7 -10
12 0 6 13 56 17 67 5 4 -3 -3 -17 -15 -30 l-22 -23 42 -43 c40 -40 41 -43 22
-55 -11 -6 -29 -12 -40 -12 -12 0 -19 -4 -15 -9 3 -6 -4 -15 -15 -21 -11 -6
-18 -15 -15 -20 3 -5 -8 -16 -24 -26 -18 -11 -36 -34 -46 -60 -10 -27 -33 -56
-63 -80 -26 -21 -51 -44 -55 -51 -4 -7 -23 -19 -41 -27 -29 -12 -34 -19 -40
-62 -8 -61 2 -72 54 -56 22 7 58 17 80 24 52 16 63 5 67 -67 4 -68 -11 -100
-68 -148 -41 -33 -43 -38 -51 -108 -4 -41 -3 -88 1 -106 5 -18 7 -50 4 -71 -4
-33 -2 -40 15 -44 17 -5 19 -12 15 -54 -4 -45 -2 -52 26 -78 17 -16 32 -28 33
-25 2 2 10 18 19 34 9 17 35 60 57 97 23 37 56 96 74 130 18 35 45 78 60 96
15 18 28 39 28 47 0 8 6 15 14 15 7 0 16 9 19 20 8 32 25 23 33 -16 5 -26 0
-55 -15 -98 -12 -33 -21 -72 -21 -84 0 -21 -111 -282 -130 -307 -16 -20 -79
-231 -86 -285 -4 -30 -22 -101 -40 -157 -38 -117 -58 -209 -74 -338 -6 -49
-18 -135 -26 -190 -29 -203 -39 -923 -13 -949 5 -6 9 -2 9 12 0 16 6 22 24 22
13 0 28 6 33 13 13 16 7 121 -8 149 -9 16 -9 23 0 26 6 2 11 10 11 18 0 23 33
54 57 54 13 0 23 -4 23 -9 0 -5 16 -24 36 -44 43 -41 39 -54 -30 -107 -36 -28
-45 -41 -46 -66 0 -16 5 -35 10 -40 17 -17 12 -133 -10 -219 -11 -44 -20 -91
-20 -105 0 -24 2 -25 65 -25 36 0 65 3 65 7 0 3 34 23 75 44 74 36 105 68 105
109 0 8 9 24 20 35 17 17 24 18 41 10 21 -12 20 -12 86 36 12 9 27 13 33 9 14
-9 13 -77 -4 -144 -19 -74 -29 -178 -18 -185 13 -8 28 6 46 42 13 25 23 32 39
30 17 -2 24 -15 35 -60 13 -52 12 -59 -2 -74 -19 -19 -46 -79 -46 -103 0 -10
9 -27 21 -39 27 -30 28 -77 1 -105 -19 -21 -20 -28 -11 -107 14 -120 17 -130
39 -130 15 0 20 -10 25 -47 4 -27 16 -75 26 -107 10 -33 19 -67 19 -77 0 -10
5 -21 10 -24 12 -7 14 -72 2 -79 -11 -7 -35 10 -38 26 -6 39 -46 109 -66 117
-24 10 -22 11 -75 -54 -12 -14 -16 -37 -15 -88 1 -38 5 -73 8 -78 3 -5 2 -18
-1 -29 -6 -18 -8 -19 -31 -4 -21 14 -24 24 -24 73 0 44 -6 65 -26 94 l-25 38
-18 -23 c-11 -14 -20 -49 -24 -92 -4 -38 -11 -74 -17 -80 -5 -5 -25 -9 -43 -8
-34 2 -44 -8 -61 -60 -3 -10 -14 -18 -25 -18 -14 0 -27 -13 -41 -40 -33 -65
-29 -90 50 -310 l38 -105 63 -22 c51 -18 80 -22 144 -19 96 4 190 22 227 42
14 7 36 14 48 14 12 0 18 4 15 11 -5 7 -2 7 11 0 11 -5 35 -15 54 -21 32 -10
36 -9 55 17 36 51 74 80 118 91 24 6 54 20 67 32 13 11 30 20 39 21 33 2 66
-3 76 -12 17 -16 46 -9 71 18 21 23 27 25 49 15 28 -13 34 -47 10 -56 -8 -3
-15 -10 -15 -16 0 -5 7 -10 15 -10 8 0 15 -9 15 -20 0 -11 5 -20 11 -20 6 0
13 9 16 20 3 13 14 20 28 20 13 0 25 3 28 8 2 4 3 2 1 -5 -3 -13 38 -26 58
-18 9 4 12 20 9 56 -2 41 -7 52 -24 58 -24 9 -46 -11 -47 -41 0 -22 -28 -24
-37 -2 -3 8 -1 26 5 40 9 19 8 30 -9 59 -20 34 -20 35 -2 72 15 32 23 38 48
36 70 -3 82 -3 118 3 20 3 37 10 37 15 0 5 5 9 10 9 6 0 10 -6 10 -14 0 -19
28 -28 48 -16 9 5 28 21 42 36 14 15 40 33 57 41 29 12 32 16 23 39 -7 16 -7
32 0 44 5 10 10 28 10 39 0 29 37 52 66 41 16 -6 33 -5 50 2 20 10 36 8 80 -7
45 -15 59 -16 72 -7 10 7 32 19 49 27 34 16 49 49 38 83 -4 15 0 22 14 27 12
3 25 3 31 0 5 -3 14 4 19 17 7 20 15 23 57 22 27 -1 63 -4 79 -8 26 -7 35 -3
67 28 20 20 47 36 60 36 13 0 32 7 42 15 45 34 113 5 88 -36 -16 -25 -15 -29
8 -29 11 0 20 6 20 13 0 7 16 19 35 26 30 11 37 10 52 -5 9 -9 28 -20 43 -25
14 -5 30 -19 35 -32 8 -18 20 -23 58 -25 30 -2 50 -8 54 -18 4 -10 22 -14 63
-14 70 0 104 23 121 80 l12 40 32 -20 c18 -11 38 -20 45 -20 17 0 75 50 58 50
-19 1 -51 48 -44 66 9 23 29 12 50 -29 15 -29 22 -34 37 -27 9 5 65 11 124 12
72 2 112 7 121 15 7 7 17 13 23 13 6 0 20 9 30 19 35 35 54 40 106 29 36 -8
68 -7 118 2 39 7 92 9 122 5 51 -6 54 -5 71 24 26 43 63 54 103 30 17 -10 39
-19 49 -19 21 0 53 35 44 47 -4 4 0 2 8 -5 8 -6 21 -12 29 -12 8 0 43 -14 77
-31 l63 -32 103 21 c127 26 203 33 344 33 87 1 118 5 154 21 33 15 64 20 115
19 54 -1 79 3 110 19 22 12 73 28 114 36 41 8 83 22 93 31 16 15 28 15 105 5
49 -7 92 -8 101 -3 9 5 25 26 37 47 17 30 30 40 60 46 24 5 41 5 45 -2 4 -6
17 -6 40 0 24 7 36 6 41 -2 6 -9 20 -9 61 1 29 7 84 11 123 9 64 -3 70 -5 75
-28 7 -27 -1 -26 140 -16 36 3 76 5 90 6 14 1 32 8 40 16 9 7 59 18 115 24 55
6 107 13 115 15 8 3 35 7 60 10 65 8 75 13 90 39 7 13 24 26 39 29 14 3 40 18
57 34 29 26 32 35 43 135 7 59 10 125 6 147 -8 47 19 152 48 193 17 23 20 45
21 147 1 90 4 121 14 121 17 0 15 27 -3 34 -8 3 -15 16 -15 28 0 28 -180 394
-225 457 -18 25 -52 82 -75 126 -24 44 -51 92 -61 107 -11 14 -19 28 -19 31 0
6 -151 229 -247 365 -83 118 -193 265 -263 352 -34 41 -88 109 -121 150 -32
42 -142 159 -244 260 -101 101 -186 186 -187 189 -2 4 -23 22 -48 41 -25 19
-76 64 -115 100 -140 130 -441 342 -695 490 -101 59 -130 89 -130 134 0 23 5
36 13 35 16 -1 205 -102 307 -164 181 -110 647 -474 778 -608 26 -26 75 -75
110 -110 120 -118 542 -636 542 -665 0 -4 8 -15 18 -23 20 -19 99 -129 178
-249 31 -47 64 -94 74 -105 10 -11 27 -38 38 -61 30 -59 134 -196 143 -187 10
11 14 101 6 143 -19 100 -28 322 -16 422 16 136 20 395 6 432 -8 22 -7 35 5
60 57 115 70 176 43 212 -8 10 -15 29 -15 42 0 40 -17 59 -97 109 -43 26 -97
62 -120 79 -22 17 -81 50 -130 73 -48 24 -101 55 -118 71 -16 16 -41 34 -55
39 -14 6 -32 15 -40 20 -48 30 -537 281 -600 308 -41 18 -91 42 -111 53 -20
11 -43 20 -50 20 -13 0 -77 30 -366 172 -103 51 -154 88 -166 121 -12 33 23
27 222 -40 137 -46 297 -114 361 -153 36 -22 205 -100 217 -100 19 0 226 -105
363 -184 63 -37 132 -69 152 -73 25 -3 51 -19 77 -44 22 -22 66 -54 98 -73 32
-18 90 -52 128 -75 106 -63 154 -83 181 -77 23 6 23 8 24 134 0 70 1 136 3
146 3 26 -86 94 -133 102 -19 3 -46 14 -60 22 -14 9 -59 29 -100 44 -41 15
-104 38 -140 51 -36 13 -94 27 -129 31 -44 5 -85 18 -128 41 -35 19 -85 37
-111 40 -26 4 -94 23 -152 42 -58 20 -118 40 -135 44 -16 4 -86 23 -154 43
-69 20 -135 36 -147 36 -12 0 -52 11 -88 25 -89 33 -266 82 -341 94 -90 14
-193 60 -237 105 -48 49 -49 71 -2 86 46 16 93 8 223 -36 98 -34 196 -59 406
-104 84 -19 164 -38 245 -61 19 -6 73 -21 120 -34 47 -14 106 -25 132 -25 27
0 68 -9 95 -22 27 -12 75 -34 108 -49 33 -15 92 -35 130 -45 39 -9 122 -39
185 -65 63 -26 150 -57 194 -69 43 -11 90 -27 105 -34 68 -35 143 -27 155 17
9 35 7 72 -5 84 -7 7 -14 57 -17 115 -2 63 -9 112 -18 125 -8 12 -14 40 -14
61 0 29 -10 52 -43 97 -50 68 -62 79 -97 89 -86 23 -289 47 -505 61 -137 8
-340 22 -451 30 -174 12 -207 12 -248 0 -39 -12 -78 -13 -207 -6 -98 6 -172 6
-192 0 -17 -5 -76 -16 -130 -24 -193 -29 -382 29 -416 126 -5 16 -9 29 -8 30
1 0 29 8 62 18 54 15 60 19 58 42 -1 22 4 27 35 35 41 10 54 41 27 64 -23 19
-18 45 12 59 62 28 330 40 411 18 45 -12 57 -29 25 -36 -23 -4 -53 -31 -53
-46 0 -22 -71 -42 -190 -55 -194 -20 -234 -40 -149 -74 33 -13 55 -15 117 -8
101 12 988 6 1212 -8 276 -16 537 -17 552 -2 11 11 10 16 -3 25 -9 7 -19 23
-22 37 -6 25 -34 66 -72 105 -11 11 -60 33 -108 49 -71 23 -93 26 -110 17 -41
-20 -118 5 -176 58 -37 33 -84 41 -122 20 -21 -11 -59 -4 -59 12 0 5 20 9 46
9 44 0 257 50 293 69 10 6 24 17 31 26 11 13 9 20 -13 43 -15 16 -27 32 -27
36 0 4 -14 19 -30 33 -17 14 -37 40 -45 59 -22 53 -56 64 -202 64 -152 0 -181
3 -210 18 -12 7 -45 12 -73 12 -32 0 -49 4 -45 10 3 6 17 10 31 10 14 0 46 11
72 23 26 13 72 31 102 41 72 22 120 51 120 74 0 10 -16 34 -36 53 -20 18 -40
43 -45 54 -5 11 -13 27 -18 35 -5 8 -30 58 -57 112 -26 53 -74 129 -106 169
-32 40 -58 76 -58 81 0 5 10 23 23 39 21 30 22 37 20 252 -1 122 -7 263 -13
312 -6 50 -15 234 -20 410 -5 176 -13 372 -19 435 -6 63 -11 178 -11 255 -1
77 -5 174 -10 215 -5 41 -16 135 -24 207 -8 73 -17 136 -20 141 -2 4 -7 50
-10 102 -3 52 -15 127 -26 165 -11 39 -31 133 -46 210 -42 225 -105 388 -204
535 -20 30 -40 64 -44 76 -12 37 -62 75 -157 116 -112 48 -186 55 -349 33z
m-1368 -1892 c25 -22 23 -42 -13 -109 -32 -62 -51 -80 -72 -67 -12 7 -17 9
-49 11 -20 2 -68 51 -68 69 0 13 148 113 169 113 8 0 23 -7 33 -17z m118 -98
c0 -9 -7 -18 -16 -22 -18 -7 -39 11 -30 26 11 17 46 13 46 -4z m1795 -242 c4
-16 7 -47 6 -70 -2 -33 2 -44 18 -53 12 -6 21 -15 21 -20 0 -5 12 -21 26 -35
23 -23 25 -31 20 -78 -3 -29 -7 -90 -10 -137 -5 -96 -14 -126 -50 -164 -13
-15 -28 -41 -31 -57 -4 -16 -11 -29 -16 -29 -5 0 -9 -6 -9 -13 0 -7 -18 -31
-40 -53 -34 -34 -41 -49 -46 -95 -3 -30 -8 -58 -11 -62 -2 -4 -6 -22 -8 -39
-5 -39 -7 -40 -52 -41 -77 -2 -109 11 -137 54 -15 22 -37 44 -49 48 -20 8 -23
17 -24 64 -1 55 5 66 42 72 15 2 109 47 115 54 3 4 22 15 43 25 34 15 38 21
32 43 -11 46 -43 78 -97 99 -10 3 -18 14 -18 23 0 9 -5 22 -12 29 -9 9 -9 12
0 12 7 0 12 8 12 18 1 23 57 85 96 105 36 18 102 129 111 184 3 18 9 33 13 33
4 0 5 21 2 48 -5 42 -3 46 11 34 13 -11 15 -10 10 7 -4 14 -1 21 10 21 8 0 18
-12 22 -27z m-2135 -228 c0 -18 -5 -37 -11 -41 -6 -3 -19 -26 -30 -51 -16 -38
-22 -43 -34 -33 -8 7 -17 27 -21 46 -5 27 -1 39 19 64 14 16 28 39 32 50 11
34 45 7 45 -35z m-296 -198 c6 -15 6 -30 2 -34 -10 -10 -36 26 -36 50 0 26 23
16 34 -16z m1876 -21 c0 -3 -4 -8 -10 -11 -5 -3 -10 -1 -10 4 0 6 5 11 10 11
6 0 10 -2 10 -4z m-113 -102 c13 -4 21 -10 18 -14 -3 -5 -1 -11 5 -15 17 -10
11 -25 -9 -25 -11 0 -27 9 -35 21 -8 12 -19 18 -24 15 -5 -3 -15 1 -22 9 -11
13 -8 15 16 15 16 0 39 -3 51 -6z m-1763 -19 c-4 -8 -8 -15 -10 -15 -2 0 -4 7
-4 15 0 8 4 15 10 15 5 0 7 -7 4 -15z m1411 -211 c87 -41 195 -137 250 -224
45 -71 83 -86 172 -67 48 10 54 9 68 -8 19 -26 19 -59 0 -75 -15 -13 -31 -15
-109 -18 l-39 -2 5 -52 c5 -52 -13 -130 -36 -155 -14 -15 -170 -70 -223 -79
-63 -10 -67 2 -59 171 6 139 6 146 -19 206 -29 72 -82 146 -155 216 -42 39
-51 54 -46 71 13 40 120 49 191 16z m-3693 -49 c19 -16 34 -22 42 -17 23 19
75 22 88 6 51 -63 55 -65 86 -47 25 14 32 15 46 4 9 -7 16 -23 16 -35 0 -12
14 -35 30 -51 20 -19 30 -39 30 -57 0 -41 -25 -46 -61 -12 -37 36 -48 25 -56
-52 -4 -39 -12 -63 -23 -71 -10 -7 -20 -23 -24 -35 -3 -13 -36 -45 -73 -73
-45 -34 -70 -61 -77 -83 -6 -18 -25 -41 -43 -52 -31 -19 -32 -19 -56 3 -13 12
-38 33 -54 47 -16 14 -35 35 -42 48 -6 12 -17 22 -24 22 -7 0 -28 23 -47 50
-19 28 -45 53 -57 56 -13 3 -23 10 -23 15 0 5 -7 9 -15 9 -8 0 -15 7 -15 15 0
8 -4 15 -10 15 -5 0 -10 7 -10 15 0 20 25 19 57 -2 25 -17 26 -16 49 12 21 26
23 37 18 87 -6 51 -4 57 15 68 19 10 26 8 48 -14 14 -14 35 -26 47 -26 11 0
16 4 11 8 -6 4 -10 41 -10 82 0 69 2 75 25 87 33 18 75 9 112 -22z m2956 -206
c30 -10 72 -63 86 -107 10 -31 -18 -62 -57 -62 -40 0 -93 54 -103 105 -6 33
-4 41 16 57 26 21 20 20 58 7z m-3159 -603 c56 -29 77 -96 39 -120 -21 -13
-60 21 -89 77 -29 56 -9 73 50 43z m-711 -122 c32 -22 72 -89 72 -118 0 -32
-32 -50 -77 -43 -44 7 -102 70 -103 110 0 55 61 85 108 51z m4872 -104 c0 -5
-2 -10 -4 -10 -3 0 -8 5 -11 10 -3 6 -1 10 4 10 6 0 11 -4 11 -10z m910 -135
c-7 -8 -21 -15 -31 -15 -10 0 -41 -9 -70 -20 -28 -11 -60 -18 -71 -14 -19 6
-19 7 3 22 22 15 44 20 122 25 15 1 27 5 27 10 0 4 7 7 16 7 14 0 14 -3 4 -15z
m-6069 -27 c13 -18 26 -35 30 -38 3 -3 9 -15 13 -27 12 -39 -30 -28 -74 19
-30 33 -36 46 -29 60 14 27 35 22 60 -14z m5814 -38 c-3 -5 -12 -7 -20 -3 -21
7 -19 13 6 13 11 0 18 -4 14 -10z m-338 -66 c-3 -3 -12 -4 -19 -1 -8 3 -5 6 6
6 11 1 17 -2 13 -5z m970 -195 c-12 -7 -15 -17 -11 -35 8 -31 -15 -32 -62 -3
-49 30 -35 49 35 49 43 -1 52 -3 38 -11z m-6233 -31 c5 -10 7 -10 12 0 9 19
34 14 34 -8 0 -28 -43 -37 -75 -16 -14 9 -23 21 -20 26 9 14 42 12 49 -2z
m5864 0 c6 -7 11 -17 11 -23 0 -5 12 -11 26 -13 15 -2 24 -9 22 -15 -9 -28
-317 -16 -317 12 0 11 73 33 135 41 94 11 112 11 123 -2z m-5248 -417 c-12
-23 -84 -35 -75 -13 3 7 5 18 5 23 0 16 43 28 63 17 13 -7 15 -13 7 -27z
m-128 -78 c22 -25 17 -58 -14 -97 -24 -30 -35 -35 -88 -41 -70 -8 -90 2 -90
46 0 24 7 32 43 50 23 12 53 30 66 40 30 24 63 24 83 2z m2288 -227 c0 -8 8
-17 17 -20 12 -5 14 -9 5 -18 -17 -17 -15 -55 3 -62 8 -3 15 -14 15 -25 0 -11
8 -28 18 -38 11 -10 29 -38 41 -63 31 -64 19 -96 -42 -105 -34 -5 -48 -13 -61
-37 -20 -32 -71 -68 -98 -68 -10 0 -18 -7 -18 -15 0 -8 -7 -15 -15 -15 -9 0
-25 -23 -39 -54 -25 -56 -136 -178 -173 -190 -11 -4 -35 -35 -54 -71 -23 -45
-42 -68 -63 -76 -40 -17 -84 -56 -101 -90 -13 -24 -18 -27 -44 -19 -39 11 -74
30 -67 38 4 3 -3 16 -15 28 -18 19 -21 31 -16 64 7 58 52 144 97 189 21 21 43
55 49 76 11 41 46 85 67 85 24 0 92 117 129 223 22 61 58 104 104 123 20 8 50
28 66 43 38 37 70 52 88 45 9 -3 26 8 44 30 28 36 63 48 63 22z m1849 -182
c107 -80 363 -348 396 -414 9 -19 26 -44 36 -55 18 -18 41 -52 164 -245 68
-105 215 -399 215 -428 0 -10 4 -22 9 -27 15 -15 97 -231 126 -330 14 -49 37
-128 51 -175 14 -47 29 -101 34 -120 15 -56 51 -272 46 -277 -7 -8 -24 30 -31
72 -8 41 -11 54 -72 285 -19 74 -41 158 -47 185 -7 28 -19 66 -28 85 -29 67
-40 95 -58 150 -73 222 -335 684 -484 854 -86 98 -241 260 -306 320 -99 91
-130 127 -130 146 0 29 11 25 79 -26z m-3620 -153 c26 -36 26 -48 2 -87 -10
-17 -22 -46 -26 -65 -14 -64 -126 -244 -159 -255 -46 -15 -60 59 -25 129 31
62 48 78 75 71 26 -7 26 -7 44 126 6 47 13 91 15 98 8 23 53 13 74 -17z m235
-526 c-12 -123 -5 -480 11 -560 12 -63 32 -152 81 -360 9 -38 22 -77 29 -85 7
-8 22 -42 34 -75 27 -76 52 -123 67 -129 6 -2 24 13 40 34 39 52 52 56 72 20
9 -16 25 -30 35 -30 26 0 22 61 -9 121 -31 58 -56 241 -45 319 l7 45 26 -82
c15 -44 34 -121 44 -170 9 -48 27 -109 40 -134 34 -65 32 -103 -5 -118 -26
-11 -29 -17 -33 -75 -3 -34 -12 -72 -19 -84 -14 -23 -43 -29 -54 -12 -10 16
-45 12 -45 -5 0 -9 6 -28 14 -43 7 -15 16 -43 20 -62 9 -52 76 -178 118 -223
33 -35 78 -143 78 -186 0 -20 50 -108 75 -131 29 -28 36 -24 39 23 2 20 12 51
23 69 13 22 17 40 12 53 -4 11 -8 32 -8 46 -1 15 -8 29 -16 33 -21 8 -19 72 5
124 10 23 23 42 28 42 5 0 9 13 9 30 0 16 -4 27 -9 24 -4 -3 -8 6 -8 20 0 26
16 43 28 31 4 -4 8 -32 9 -63 5 -133 29 -325 69 -551 9 -46 14 -117 13 -157
-2 -54 1 -78 12 -91 8 -10 21 -31 27 -46 7 -15 16 -26 21 -22 5 3 21 0 36 -7
20 -9 25 -17 20 -32 -15 -52 -17 -89 -6 -150 13 -74 3 -117 -17 -79 -6 11 -14
39 -18 61 -11 68 -124 222 -163 222 -23 0 -56 72 -106 232 -33 108 -48 138
-61 125 -5 -5 -12 -47 -13 -79 -2 -33 -17 -18 -47 43 -25 54 -29 72 -27 138 3
75 -2 98 -38 177 -11 22 -19 46 -19 52 0 7 -5 12 -10 12 -6 0 -16 12 -23 28
-6 15 -21 41 -32 57 -19 29 -118 226 -136 270 -4 11 -13 45 -20 75 -15 68 -55
195 -73 229 -14 26 -36 137 -56 279 -6 40 -17 91 -26 115 -30 80 -43 163 -51
332 -10 190 -2 392 18 444 11 32 13 33 26 15 11 -15 13 -36 7 -99z m1356 -650
c0 -20 24 -64 42 -76 12 -8 -4 -154 -17 -153 -5 1 -20 21 -33 45 -12 24 -27
46 -33 49 -17 11 -14 156 4 178 9 11 13 11 24 -4 7 -10 13 -27 13 -39z m653
-34 c27 -76 10 -89 -45 -34 -34 34 -40 45 -34 68 5 21 12 26 34 23 22 -2 29
-12 45 -57z m-474 -10 c10 -31 11 -57 5 -94 -14 -77 -31 -70 -37 15 -3 40 -9
86 -13 101 -6 25 -4 28 12 25 12 -2 24 -19 33 -47z m-259 -83 c0 -31 -3 -63
-6 -72 -11 -29 -24 -17 -24 23 0 21 -5 52 -11 69 -8 22 -7 36 1 52 11 21 12
21 25 3 8 -10 14 -42 15 -75z m-55 -185 c17 -84 0 -110 -38 -57 -16 21 -18 35
-12 86 7 54 9 59 23 44 8 -8 21 -41 27 -73z m345 -85 c0 -63 -15 -84 -30 -43
-11 30 -13 105 -3 130 11 31 32 -24 33 -87z m-400 -50 c0 -110 -39 -73 -45 43
l-3 70 24 -28 c19 -22 24 -39 24 -85z m-1095 -50 c12 -125 -2 -176 -34 -126
-16 25 -27 134 -17 172 4 17 13 26 25 26 17 0 20 -10 26 -72z m1359 8 c18 -51
16 -98 -4 -135 -15 -28 -34 65 -31 157 1 47 14 39 35 -22z m-924 -101 c0 -8
-4 -15 -9 -15 -5 0 -11 7 -15 15 -3 9 0 15 9 15 8 0 15 -7 15 -15z m84 -83
c10 -17 -19 -107 -34 -107 -20 0 -24 37 -10 80 11 33 32 46 44 27z m516 -22
c0 -5 -4 -10 -10 -10 -5 0 -10 5 -10 10 0 6 5 10 10 10 6 0 10 -4 10 -10z
m-1058 -35 c0 -8 1 -21 2 -27 1 -7 7 -19 15 -27 9 -10 11 -27 7 -55 -13 -78
-66 -99 -66 -26 0 22 -5 42 -11 46 -13 8 -5 69 12 90 15 18 39 18 41 -1z m423
-44 c-3 -12 -11 -21 -16 -21 -10 0 -12 43 -2 53 12 13 25 -10 18 -32z m55 -52
c0 -24 -23 -21 -28 4 -2 10 3 17 12 17 10 0 16 -9 16 -21z m3959 -53 l-1 -31
-13 30 c-8 17 -14 39 -14 50 0 20 0 20 14 1 8 -11 15 -34 14 -50z m-3471 -245
c2 -32 0 -42 -10 -39 -8 3 -14 22 -14 47 -2 56 20 49 24 -8z m-1651 -148 c-3
-10 -5 -4 -5 12 0 17 2 24 5 18 2 -7 2 -21 0 -30z m190 22 c-4 -8 -2 -17 3
-20 12 -7 13 -65 2 -65 -16 0 -32 25 -32 50 0 14 5 31 12 38 16 16 21 15 15
-3z m1519 -19 c17 -17 19 -99 3 -124 -11 -17 -13 -17 -36 6 -23 23 -23 26 -11
78 13 57 20 63 44 40z m-211 -156 c17 -32 19 -68 6 -89 -7 -11 -13 -7 -25 17
-21 41 -21 102 0 102 2 0 10 -13 19 -30z m166 -32 c3 -34 -5 -65 -22 -87 -23
-29 -24 -69 -4 -118 8 -19 15 -43 14 -52 0 -11 -3 -9 -9 6 -5 12 -25 29 -44
38 -35 17 -36 19 -36 70 0 69 13 103 44 111 13 3 26 14 29 25 6 21 26 26 28 7z
m-125 -186 c18 -14 23 -32 29 -99 7 -91 -2 -104 -42 -60 -35 38 -47 178 -15
177 4 0 17 -8 28 -18z m194 -39 c0 -17 45 -83 67 -96 7 -4 13 -17 13 -27 0
-11 20 -58 45 -106 41 -81 74 -188 61 -201 -11 -11 -44 28 -77 90 -18 34 -43
75 -56 90 -12 16 -23 39 -23 53 0 13 -9 50 -19 81 -23 71 -33 133 -20 133 5 0
9 -7 9 -17z m-1622 -143 c7 -11 10 -31 6 -46 l-6 -25 -22 20 c-29 27 -34 26
-68 -6 l-28 -27 0 33 c0 54 15 71 63 71 31 0 45 -5 55 -20z m1068 -178 c17
-26 22 -54 27 -150 7 -130 1 -192 -19 -192 -16 0 -34 60 -34 113 0 33 -4 39
-30 48 -39 14 -45 50 -30 171 16 127 18 131 43 82 12 -22 31 -55 43 -72z
m-279 -242 c-6 -19 -19 -44 -29 -56 -10 -11 -18 -28 -18 -37 0 -29 -18 -18
-26 16 -16 65 7 134 41 121 7 -3 16 3 20 13 13 32 23 -16 12 -57z m-337 -99
c0 -13 -30 -81 -36 -81 -5 0 5 69 13 83 6 10 23 9 23 -2z m627 -173 c-2 -13
-4 -3 -4 22 0 25 2 35 4 23 2 -13 2 -33 0 -45z m4123 21 c0 -16 5 -20 20 -16
20 5 46 -24 33 -37 -10 -10 -53 -7 -53 4 0 6 -7 10 -15 10 -15 0 -21 40 -8 53
13 13 23 7 23 -14z m-4692 -230 c31 -46 27 -93 -9 -97 -30 -3 -46 24 -56 94
-7 53 12 88 31 56 6 -10 21 -34 34 -53z m194 -2 c-6 -12 -18 -65 -26 -118 -16
-97 -48 -189 -67 -189 -26 0 -23 41 11 165 5 17 13 51 19 76 5 25 23 60 38 78
29 33 43 25 25 -12z m1474 -192 c18 -14 18 -14 -8 -15 -18 0 -28 5 -28 15 0
19 11 19 36 0z m-980 -21 c10 -38 -2 -114 -20 -132 -15 -15 -18 -14 -40 8 -26
26 -49 89 -28 76 14 -9 62 37 62 59 0 25 19 17 26 -11z m1444 11 c13 -15 10
-17 -74 -30 -33 -5 -37 -4 -25 7 42 38 79 47 99 23z m-1324 -52 c-10 -10 -19
5 -10 18 6 11 8 11 12 0 2 -7 1 -15 -2 -18z"/>
<path d="M11460 11455 c7 -8 16 -15 21 -15 5 0 6 7 3 15 -4 8 -13 15 -21 15
-13 0 -13 -3 -3 -15z"/>
<path d="M2530 12402 c-41 -15 -132 -58 -201 -95 -108 -57 -133 -75 -166 -120
-81 -107 -113 -155 -113 -169 0 -8 -4 -18 -9 -23 -8 -9 -20 -65 -41 -200 -4
-27 -13 -77 -20 -110 -15 -70 -8 -308 15 -560 16 -180 27 -243 55 -330 38
-120 68 -252 80 -355 6 -58 25 -166 42 -240 68 -300 81 -347 111 -400 14 -25
30 -63 37 -85 7 -22 16 -44 21 -49 5 -6 9 -24 9 -42 0 -17 6 -37 14 -43 20
-17 77 -147 83 -191 3 -21 14 -48 24 -59 11 -11 19 -25 19 -31 0 -10 65 -138
172 -340 53 -99 109 -267 133 -395 18 -96 62 -218 99 -275 12 -19 37 -71 56
-115 46 -112 89 -207 100 -225 6 -8 16 -27 23 -42 7 -16 37 -48 66 -73 40 -34
61 -45 87 -45 19 0 34 5 34 10 0 6 12 16 28 22 43 19 176 119 208 158 84 98
97 125 102 210 l5 81 41 22 c22 12 42 30 42 39 1 10 -2 15 -7 12 -12 -7 -60
20 -81 45 -11 13 -16 33 -14 51 4 35 2 33 41 46 37 12 41 34 20 116 -19 76
-38 106 -74 121 -15 7 -60 34 -99 61 -67 46 -77 50 -150 55 -84 6 -135 29
-130 59 1 9 -10 35 -25 57 -18 26 -27 53 -27 79 0 41 -36 174 -51 190 -5 6 -9
20 -9 33 0 13 -4 23 -9 23 -5 0 -14 15 -20 33 -6 18 -20 40 -31 50 -11 9 -20
26 -20 37 0 26 30 26 37 0 3 -11 8 -20 12 -20 3 0 24 -22 46 -50 25 -32 47
-50 61 -50 27 0 46 22 38 44 -4 10 0 22 11 30 17 12 27 83 13 92 -20 12 -6 58
25 88 39 37 53 66 32 66 -12 0 -15 16 -15 79 0 52 -4 81 -12 83 -8 3 -12 40
-12 120 -1 64 2 114 6 112 4 -3 5 2 2 10 -5 12 0 16 19 16 14 0 28 -4 32 -9 3
-5 19 -12 35 -16 29 -6 35 -18 30 -55 -1 -8 -6 -16 -11 -18 -14 -5 -10 -95 5
-115 19 -25 119 -57 162 -51 20 2 48 13 63 23 15 11 58 30 95 43 38 13 67 28
65 33 -5 13 -103 8 -107 -5 -2 -5 -10 -10 -18 -10 -8 0 -14 -7 -14 -15 0 -20
-26 -19 -42 0 -7 9 -19 21 -26 28 -7 7 -21 20 -30 30 -9 9 -22 17 -28 17 -18
0 -25 29 -13 52 7 13 16 17 27 13 35 -15 151 -18 182 -5 31 13 32 30 2 30 -9
0 -24 5 -32 10 -26 18 14 39 61 33 40 -6 119 20 119 39 0 4 7 8 15 8 9 0 15
-9 15 -25 0 -14 -4 -25 -10 -25 -12 0 -13 -40 -2 -58 7 -9 13 -8 27 8 23 26
41 26 48 0 6 -22 -15 -71 -38 -90 -12 -10 -16 -9 -21 5 -4 9 -2 21 5 28 6 6
11 16 11 21 0 6 -5 4 -10 -4 -5 -8 -14 -16 -20 -16 -5 -1 -16 -2 -22 -3 -9 -1
-7 -6 5 -15 23 -18 22 -35 -2 -29 -10 3 -21 0 -25 -5 -7 -12 46 -32 85 -32 15
0 40 -5 56 -11 42 -16 131 7 135 35 2 12 8 21 15 21 19 0 31 17 38 58 6 28 4
37 -5 35 -7 -2 -15 3 -17 10 -3 8 6 12 28 12 l33 0 -29 30 c-35 37 -50 38 -71
5 -18 -27 -34 -25 -34 5 0 11 -10 25 -22 31 -27 14 -72 60 -74 74 -1 6 -2 14
-3 19 0 5 -7 3 -15 -3 -32 -27 -81 -22 -163 16 -24 11 -33 22 -33 39 0 32 22
39 137 48 l92 7 28 -38 c67 -90 129 -119 154 -72 9 17 17 20 45 16 30 -5 36
-3 44 18 13 34 28 39 71 25 34 -11 41 -11 57 3 17 16 20 15 53 -13 60 -51 77
-36 33 30 -28 43 -26 69 6 77 11 3 20 13 20 22 0 27 -26 114 -44 150 -11 20
-14 37 -9 42 12 12 65 -53 102 -124 42 -80 80 -137 91 -137 17 0 11 46 -10 73
-20 25 -26 54 -37 165 -4 41 -2 52 9 50 7 -2 18 -9 24 -17 9 -12 12 -11 17 3
9 24 34 20 53 -9 22 -33 53 -50 66 -37 6 6 10 47 9 91 -1 45 1 81 4 81 4 0 16
-5 27 -11 35 -19 42 15 23 111 -3 14 -1 32 4 40 8 12 13 12 30 -4 17 -15 23
-16 36 -6 11 9 12 17 4 32 -11 20 -10 20 19 3 16 -10 36 -15 44 -12 18 7 41
97 39 156 -1 44 -1 44 19 26 11 -10 20 -29 20 -42 0 -26 35 -66 53 -60 7 2 12
19 12 38 0 19 9 46 18 61 15 22 16 31 7 48 -7 12 -10 31 -7 42 7 25 -27 81
-77 127 -184 172 -179 168 -261 190 -22 6 -64 31 -93 55 -29 25 -87 67 -128
93 -42 26 -100 68 -130 93 -30 25 -76 57 -102 70 -26 14 -102 60 -169 102 -67
43 -124 78 -128 78 -3 0 -35 20 -72 45 -36 25 -70 45 -75 45 -5 0 -28 15 -51
34 -23 18 -71 49 -107 68 -36 19 -96 54 -135 78 -104 64 -344 180 -372 180
-14 0 -52 11 -86 24 -110 43 -124 45 -309 50 -181 5 -184 5 -258 -22z m970
-2177 c10 -12 7 -19 -17 -39 -30 -27 -43 -32 -43 -17 0 5 -13 12 -30 16 -36 8
-46 21 -30 40 17 20 103 20 120 0z m13 -111 c27 -5 37 -12 37 -25 0 -10 5 -21
10 -24 41 -25 -52 -42 -106 -19 -22 9 -52 14 -71 11 -32 -6 -33 -4 -31 21 2
17 11 30 23 34 27 8 91 9 138 2z m450 -92 c15 -13 16 -17 3 -24 -21 -12 -66
11 -66 34 0 15 5 18 23 12 12 -3 30 -13 40 -22z m-503 -1496 c0 -11 -19 -15
-25 -6 -3 5 1 10 9 10 9 0 16 -2 16 -4z m-316 -351 c109 -94 152 -148 161
-202 3 -23 4 -51 0 -63 -9 -28 -56 -27 -81 3 -24 27 -84 142 -84 161 0 8 -7
27 -15 42 -8 16 -15 38 -15 50 0 11 -5 25 -12 32 -27 27 8 9 46 -23z"/>
<path d="M5200 11072 c0 -11 22 -32 32 -32 5 0 4 9 -2 20 -11 20 -30 28 -30
12z"/>
<path d="M622 10068 c-18 -18 -231 -27 -244 -10 -6 7 -18 10 -26 7 -7 -3 -90
-6 -183 -6 l-169 -1 0 -5029 0 -5029 1039 0 c744 0 1040 3 1043 11 7 21 86 27
175 12 49 -8 154 -16 235 -19 l146 -6 -8 38 c-5 21 -6 43 -2 48 3 6 5 23 4 37
-2 23 1 26 20 21 17 -4 20 -2 15 11 -4 12 -1 17 9 17 10 0 14 -6 10 -15 -3 -8
-1 -15 5 -15 6 0 8 -4 5 -8 -3 -5 15 -16 38 -26 25 -10 48 -28 55 -42 6 -15
19 -24 33 -24 l23 0 -25 -20 -25 -20 143 0 c111 0 143 3 140 13 -3 6 -26 16
-51 21 -26 4 -47 13 -48 20 0 6 -2 21 -3 34 -2 17 5 27 28 39 17 9 33 20 37
24 3 5 20 4 38 -1 22 -6 40 -6 52 0 24 13 26 13 32 -9 8 -32 39 -15 98 52 56
63 77 93 121 167 15 25 47 67 72 95 25 27 51 63 57 80 7 16 21 41 31 54 10 14
23 44 29 68 6 24 15 43 20 43 5 0 9 11 9 25 0 14 15 41 34 63 33 37 35 41 33
113 -1 65 2 79 27 116 27 41 27 43 17 112 -16 102 -14 116 18 152 38 41 48
124 19 151 -13 12 -17 24 -13 41 4 14 2 28 -4 31 -20 13 -12 42 20 72 20 19
28 35 25 48 -3 11 2 35 10 55 17 41 11 76 -18 108 -15 16 -20 36 -22 87 -1 63
0 66 26 75 16 6 28 16 28 24 0 8 9 26 20 40 25 32 25 45 0 72 l-20 22 20 25
c25 32 25 34 1 41 -11 2 -27 19 -36 38 -16 30 -16 34 0 61 12 21 15 40 10 67
-5 30 -3 40 9 44 9 4 16 13 16 21 0 9 10 24 22 36 l22 20 -22 23 c-31 32 -28
57 8 70 38 15 55 54 39 90 -15 33 1 69 37 86 29 13 31 46 4 61 -24 13 -96 3
-115 -16 -9 -10 -42 -13 -109 -13 -71 0 -100 -3 -111 -14 -7 -8 -31 -18 -52
-22 -20 -4 -50 -13 -65 -21 -16 -8 -33 -12 -39 -9 -5 4 -16 2 -23 -4 -9 -7
-22 -8 -37 -3 -38 13 -57 3 -70 -36 -19 -61 -25 -65 -99 -58 -36 4 -148 9
-250 12 -251 7 -308 24 -487 145 -21 14 -78 50 -128 79 -115 68 -132 81 -282
225 -276 265 -422 531 -494 899 -6 28 -10 125 -10 216 0 247 37 401 154 640
50 100 125 212 172 255 89 82 166 149 182 159 11 6 35 21 54 33 19 13 46 23
62 23 15 0 27 4 27 10 0 5 17 12 38 16 37 7 79 29 97 51 10 12 46 20 92 22 12
1 40 18 63 40 32 30 43 48 47 80 4 31 10 41 24 41 10 0 21 5 24 10 4 6 16 -1
28 -17 29 -37 59 -62 75 -63 8 0 22 -10 32 -22 14 -18 32 -24 91 -29 41 -4
106 -10 144 -14 71 -7 135 -28 135 -45 0 -5 18 -15 41 -21 34 -11 48 -10 92 6
29 10 56 22 61 26 16 14 73 10 111 -8 34 -16 35 -16 60 7 21 20 25 31 21 60
-3 19 -5 41 -6 47 0 7 -3 12 -7 11 -12 -3 -85 47 -116 79 l-27 29 27 26 c16
14 45 34 67 43 37 18 40 18 105 -2 74 -24 156 -37 170 -29 5 4 -2 27 -16 53
-31 59 -20 88 36 97 51 8 204 7 217 -2 6 -4 19 -22 29 -41 l17 -34 56 8 c32 4
79 9 105 10 30 2 55 10 68 21 21 19 109 149 109 161 0 4 7 15 17 25 9 10 21
27 27 37 6 10 30 52 54 92 70 120 126 205 163 246 19 22 52 69 74 106 22 37
69 111 103 164 35 54 71 112 79 128 9 17 30 47 47 67 17 20 42 58 55 85 33 66
92 153 104 153 12 0 88 77 111 112 16 24 16 29 3 49 -17 23 -13 43 12 72 11
14 24 17 51 12 33 -5 39 -2 105 65 39 39 90 101 115 138 33 49 73 88 150 149
142 111 195 157 331 287 64 61 133 125 153 143 31 27 36 37 36 75 0 24 -7 54
-16 66 -14 21 -13 25 22 67 20 25 48 48 63 51 81 17 95 46 38 75 -37 19 -47
20 -87 10 -27 -7 -122 -10 -240 -9 -164 1 -203 -1 -245 -16 -88 -32 -109 -38
-170 -51 -136 -31 -246 -47 -321 -48 -51 -1 -83 -6 -89 -14 -9 -11 -84 -33
-215 -63 -36 -8 -99 -29 -180 -60 -25 -10 -62 -21 -84 -24 -21 -4 -50 -12 -65
-18 -14 -6 -35 -13 -46 -15 -25 -5 -98 -48 -115 -67 -9 -12 -31 -16 -80 -16
-102 0 -162 -18 -299 -87 -68 -35 -130 -63 -137 -63 -8 0 -17 -12 -20 -26 -7
-28 7 -44 39 -44 9 0 17 -5 17 -11 0 -5 10 -9 23 -7 14 2 21 -2 19 -10 -1 -7
11 -17 27 -23 35 -12 32 -33 -15 -99 -39 -55 -50 -109 -31 -147 8 -15 17 -53
21 -83 8 -60 45 -120 75 -120 9 0 39 10 67 23 40 19 63 23 124 21 103 -4 150
9 150 41 0 21 5 25 30 25 17 0 30 -4 30 -9 0 -8 24 -9 77 -2 7 0 17 10 23 22
9 16 8 24 -4 38 -23 25 -21 28 32 45 78 26 130 30 216 16 65 -10 90 -10 119
-1 52 18 97 6 97 -24 0 -13 5 -25 10 -27 14 -4 1 -68 -15 -68 -6 0 -33 -20
-59 -45 -30 -28 -61 -47 -82 -51 -39 -7 -94 -48 -94 -69 0 -19 57 -60 105 -76
22 -7 49 -19 60 -26 11 -7 30 -13 43 -13 19 0 23 -4 17 -17 -16 -39 -17 -54
-5 -68 20 -24 4 -44 -62 -75 -35 -17 -83 -46 -108 -65 -25 -20 -53 -42 -64
-50 -45 -34 -126 -27 -126 11 0 8 -12 16 -27 19 -16 3 -41 10 -56 15 -32 10
-57 4 -57 -14 0 -24 41 -76 80 -102 22 -15 40 -31 40 -36 0 -5 5 -6 11 -3 14
9 66 -13 73 -31 7 -18 -10 -64 -24 -64 -10 0 -33 -19 -123 -103 -23 -22 -61
-53 -84 -70 -24 -17 -43 -34 -43 -39 0 -12 -88 -10 -96 3 -3 6 -16 8 -28 5
-11 -3 -28 -1 -36 5 -13 8 -10 14 18 38 21 18 32 37 32 53 0 42 9 56 51 80 21
12 39 28 39 36 0 22 -59 7 -90 -23 -15 -14 -38 -25 -53 -25 -33 0 -74 37 -61
55 5 7 18 25 29 41 10 16 29 42 42 57 13 16 23 35 23 43 0 8 9 23 20 34 29 29
34 64 20 147 -12 68 -18 79 -61 126 -39 42 -58 54 -101 64 -84 19 -151 16
-211 -11 -64 -28 -82 -54 -86 -127 -3 -55 -2 -57 28 -67 28 -10 31 -15 31 -52
0 -35 -6 -46 -37 -75 -21 -19 -43 -35 -49 -35 -8 0 -10 -19 -7 -60 4 -51 3
-60 -12 -60 -9 0 -13 -5 -9 -11 5 -8 -6 -10 -37 -5 -24 3 -54 7 -66 9 -11 1
-31 14 -43 30 -18 23 -19 28 -6 33 25 9 58 110 50 153 -10 54 -19 61 -69 54
-57 -7 -95 3 -95 25 0 29 21 42 66 42 36 0 46 5 63 29 12 16 21 36 21 45 0 8
7 19 16 24 18 10 35 74 24 92 -8 13 -73 10 -117 -5 -20 -6 -23 -4 -23 19 0 14
-6 26 -12 26 -8 0 -14 16 -16 37 -1 24 -12 47 -28 65 -29 29 -27 58 3 58 35 0
-15 34 -65 45 l-47 10 -1 55 c-1 30 1 40 3 22 4 -28 6 -31 16 -19 7 9 34 18
60 21 29 3 55 12 65 23 22 23 57 43 77 43 8 0 32 7 54 16 32 13 38 19 33 37
-3 12 -11 26 -19 30 -7 4 -13 17 -13 27 0 30 -64 31 -163 2 -55 -16 -58 -18
-84 -74 -14 -31 -30 -55 -34 -52 -5 3 -11 -7 -15 -21 -3 -13 -10 -23 -14 -20
-22 14 -35 -88 -19 -149 8 -29 7 -45 -2 -62 -10 -19 -9 -28 5 -49 16 -25 16
-28 -2 -63 -14 -26 -26 -37 -41 -36 -14 0 -21 -5 -19 -15 1 -9 -1 -22 -6 -30
-15 -23 -30 -180 -28 -284 1 -54 -2 -126 -8 -160 -10 -65 4 -233 21 -252 5 -5
9 -15 9 -22 0 -7 8 -22 18 -32 9 -11 23 -27 30 -35 16 -20 32 -21 32 -2 0 27
18 26 69 -1 49 -27 51 -27 86 -10 72 34 185 13 159 -29 -6 -10 -19 -22 -30
-28 -10 -6 -21 -13 -24 -16 -20 -20 -54 -29 -83 -23 -51 11 -105 6 -132 -11
-30 -20 -32 -37 -5 -61 23 -21 25 -43 6 -70 -15 -23 -5 -65 16 -65 22 -1 60
-39 55 -55 -4 -8 -18 -17 -32 -21 -15 -4 -38 -17 -52 -30 -14 -13 -33 -25 -42
-25 -57 -5 -83 -1 -94 15 -7 9 -19 18 -27 19 -8 2 -22 7 -29 12 -8 5 -49 9
-90 10 -96 2 -139 16 -182 61 -71 74 -234 168 -314 180 -31 4 -117 42 -239
104 -164 83 -191 100 -189 118 2 16 -9 29 -40 48 -23 14 -64 41 -92 60 -27 18
-68 36 -90 39 -83 13 -145 48 -175 97 -32 53 -10 78 69 78 27 0 42 9 74 42 22
23 46 56 53 75 8 18 20 33 27 33 30 0 87 72 94 119 3 20 11 43 18 51 13 17 28
54 46 123 7 26 17 47 22 47 5 0 6 8 2 18 -4 9 -9 41 -10 70 -2 28 -7 58 -12
65 -4 6 -8 14 -9 17 0 3 -5 23 -11 45 -13 45 -36 492 -38 725 -1 85 -7 180
-12 210 -5 30 -9 110 -9 178 1 73 -3 123 -9 126 -6 2 -6 11 2 24 6 11 9 23 5
26 -10 10 -11 31 -17 216 -3 96 -8 185 -10 197 -3 12 -10 106 -16 210 -6 103
-11 194 -11 201 -1 6 -5 12 -10 12 -4 0 -8 9 -8 20 0 22 16 27 23 8 2 -7 8 0
12 16 5 17 3 42 -3 60 -6 17 -12 54 -13 81 -1 44 -6 54 -38 83 -20 17 -41 32
-48 32 -7 0 -13 4 -13 9 0 6 18 9 40 8 28 -2 40 1 40 11 0 10 -8 12 -29 7 -36
-8 -75 11 -67 31 4 10 -3 14 -29 14 -30 0 -34 3 -32 23 2 19 -3 22 -43 25 -27
2 -50 9 -58 20 -9 12 -26 16 -71 14 -33 -1 -62 2 -66 8 -9 14 -185 13 -185 -1
0 -15 -69 -6 -109 14 -25 13 -73 16 -239 18 -214 2 -423 17 -433 31 -3 4 -10
3 -17 -4z m3767 -2130 c16 -10 19 -20 15 -57 -5 -45 -4 -47 36 -75 23 -15 58
-30 79 -33 35 -5 40 -3 52 23 17 34 46 42 114 33 27 -4 77 -8 111 -8 33 -1 65
-6 72 -13 7 -7 12 -9 12 -6 0 11 93 -33 118 -55 25 -24 31 -87 8 -106 -17 -14
-159 -18 -252 -7 -59 7 -78 6 -104 -8 -59 -29 -94 -22 -135 29 -30 36 -44 45
-81 51 -30 4 -54 16 -73 34 -36 36 -111 50 -132 25 -8 -9 -20 -21 -27 -28 -7
-7 -22 -20 -32 -29 -11 -10 -22 -13 -24 -9 -8 12 -95 33 -107 25 -6 -4 -6 -11
2 -20 9 -11 7 -14 -15 -14 -19 0 -26 5 -26 20 0 11 -7 20 -16 20 -8 0 -12 5
-9 11 4 6 23 9 42 7 18 -1 37 2 41 8 4 6 27 21 52 34 25 13 63 41 85 62 57 53
126 98 153 98 12 0 31 -5 41 -12z m-1022 -490 c-3 -8 -6 -5 -6 6 -1 11 2 17 5
13 3 -3 4 -12 1 -19z m422 -1017 c20 -13 -1 -61 -27 -61 -10 0 -23 -5 -30 -12
-8 -8 -15 -9 -22 -2 -13 13 -2 44 15 44 7 0 15 9 18 20 5 21 23 25 46 11z
m-142 -573 c-5 -17 -2 -19 18 -16 24 5 24 5 8 -25 l-15 -30 -30 32 c-29 31
-29 33 -13 51 21 23 39 16 32 -12z m-1612 -4150 c22 -14 46 -33 54 -41 11 -15
10 -18 -14 -27 -22 -9 -26 -15 -21 -35 6 -23 3 -25 -24 -25 -49 0 -160 69
-160 99 0 5 4 20 9 33 8 20 15 23 62 23 40 -1 65 -8 94 -27z m872 -295 c31
-38 32 -99 1 -108 -44 -15 -119 -8 -147 12 -41 31 -35 70 16 109 38 29 47 32
75 23 18 -5 43 -21 55 -36z m-62 -1093 c0 -48 -1 -49 -35 -55 -49 -10 -70 -23
-70 -45 0 -16 -7 -20 -36 -20 -19 0 -44 -4 -54 -10 -24 -13 -36 15 -15 37 8 8
12 19 9 24 -7 13 24 49 43 49 7 0 13 5 13 10 0 6 20 10 44 10 27 0 48 6 56 16
8 8 9 14 4 13 -22 -4 -26 2 -9 15 33 24 50 10 50 -44z m240 -45 c0 -25 -40
-45 -73 -36 -41 11 -36 44 8 52 51 9 65 6 65 -16z"/>
<path d="M3748 9737 c-61 -9 -68 -13 -68 -32 0 -14 -8 -25 -20 -28 -11 -3 -20
-10 -20 -16 0 -21 55 -33 145 -30 70 3 96 8 118 23 31 23 34 34 10 43 -10 3
-27 14 -38 23 -29 25 -51 28 -127 17z"/>
<path d="M6452 7472 c-7 -5 -15 -25 -18 -44 -6 -31 -3 -37 17 -43 13 -4 27
-12 30 -18 9 -13 29 1 29 20 0 18 -32 92 -40 93 -3 0 -11 -4 -18 -8z"/>
<path d="M5663 7250 c-34 -14 -178 -165 -191 -201 -2 -5 -9 -9 -16 -9 -7 0
-30 -15 -52 -34 -35 -30 -37 -36 -27 -58 8 -19 22 -27 51 -32 40 -6 68 -36 34
-36 -10 0 -29 -18 -42 -40 -49 -80 -44 -76 -74 -56 -28 18 -34 16 -74 -21 -7
-7 -22 -13 -33 -13 -10 0 -38 -21 -62 -46 -23 -25 -69 -73 -103 -107 -34 -34
-69 -78 -79 -97 -10 -19 -21 -37 -24 -40 -13 -10 -31 -62 -31 -88 0 -34 -4
-39 -63 -86 -39 -32 -59 -61 -111 -165 -34 -69 -66 -146 -70 -171 -4 -25 -24
-81 -45 -125 -53 -112 -94 -286 -110 -466 -6 -58 -19 -146 -29 -195 -18 -80
-19 -112 -12 -309 4 -121 11 -228 15 -237 9 -22 21 -23 33 -2 6 11 11 13 16 5
4 -6 19 -11 33 -11 15 0 34 -6 42 -14 9 -8 32 -17 52 -21 30 -6 40 -3 58 16
12 13 50 37 84 54 58 28 62 33 65 68 2 21 -2 45 -9 53 -10 12 -4 14 34 14 60
0 77 -8 77 -34 1 -26 37 -69 76 -87 23 -12 29 -21 30 -49 1 -63 4 -71 28 -95
29 -28 44 -26 98 16 20 16 43 29 51 29 8 0 42 19 76 42 56 37 62 44 59 72 -3
26 -9 33 -46 46 -53 19 -76 50 -67 91 4 17 14 33 23 36 10 4 38 25 64 47 69
61 76 66 92 66 19 0 46 38 40 55 -10 24 -51 26 -93 4 -31 -16 -52 -19 -100
-16 -65 5 -91 18 -91 47 0 22 91 68 149 77 22 3 50 19 73 40 34 33 39 35 85
29 69 -10 103 -10 145 -1 37 7 37 7 54 -34 21 -53 43 -53 95 2 47 50 47 76 1
91 -86 29 -138 114 -96 157 16 16 25 17 54 9 53 -15 57 -14 106 37 45 46 47
46 84 36 37 -9 41 -8 73 24 36 34 52 87 33 102 -6 4 -39 18 -74 31 -68 25
-102 60 -102 104 0 23 -4 26 -37 26 -21 0 -62 -7 -92 -15 -31 -8 -73 -12 -96
-9 -30 5 -64 -2 -130 -24 -149 -51 -208 -26 -130 56 19 20 35 40 35 45 0 4 12
7 28 7 31 0 72 25 72 43 0 7 11 24 25 39 14 15 25 31 25 35 0 19 45 46 74 44
17 -1 74 -2 126 -1 245 2 279 0 312 -18 18 -10 38 -28 44 -40 8 -16 13 -19 22
-10 9 9 15 9 23 1 6 -6 19 -9 28 -7 9 3 3 -2 -13 -12 -29 -16 -29 -17 -10 -31
11 -8 20 -10 22 -3 5 15 42 -8 43 -28 4 -53 20 107 33 341 9 148 18 272 21
277 2 4 9 72 15 151 6 79 17 164 25 189 23 75 45 202 45 260 0 49 -1 52 -15
34 -8 -10 -15 -27 -15 -36 0 -9 -7 -21 -15 -26 -9 -4 -18 -26 -22 -48 -3 -21
-10 -45 -16 -51 -13 -18 -46 -16 -53 2 -8 21 -43 19 -50 -2 -25 -76 -53 -135
-84 -178 -20 -27 -49 -84 -64 -126 -25 -72 -58 -119 -83 -119 -5 0 -22 -14
-36 -31 -22 -27 -50 -42 -118 -65 -9 -3 -26 -27 -38 -54 -26 -57 -54 -70 -77
-35 -9 14 -13 33 -9 45 9 28 -11 50 -47 50 -22 0 -33 -7 -46 -30 -22 -39 -40
-35 -75 18 -39 58 -45 103 -18 140 11 17 21 34 21 38 0 5 25 34 56 65 37 37
56 66 57 83 2 21 7 26 29 26 15 0 31 6 35 14 4 7 18 18 29 24 12 6 34 33 49
59 15 27 36 57 47 69 21 23 37 72 31 92 -3 6 -13 12 -23 12 -21 0 -80 -78 -81
-107 0 -11 -24 -33 -60 -56 -32 -21 -59 -44 -59 -52 0 -9 -8 -11 -22 -8 -29 7
-58 32 -58 49 0 7 -6 14 -12 17 -10 3 -10 9 -1 28 6 13 16 40 22 58 11 32 9
37 -16 57 l-27 22 48 48 c60 61 72 80 80 127 7 39 5 41 -31 27z m-149 -326
c22 -22 20 -44 -4 -44 -11 0 -20 6 -20 14 0 8 -5 16 -12 18 -12 4 -3 28 12 28
5 0 16 -7 24 -16z m39 -104 c3 -11 2 -20 -3 -20 -4 0 -10 -9 -13 -20 -3 -11
-13 -20 -22 -20 -12 0 -15 6 -10 23 4 12 9 30 11 40 7 23 30 22 37 -3z m743
-102 c21 -62 5 -100 -39 -96 -26 2 -33 8 -35 28 -3 30 32 90 52 90 8 0 18 -10
22 -22z m-899 -80 c56 -53 -3 -161 -70 -127 -12 7 -23 13 -25 14 -2 2 3 14 12
27 10 16 12 28 6 38 -5 8 -10 27 -10 43 0 24 4 27 32 27 19 0 41 -9 55 -22z
m821 -131 c4 -29 -12 -37 -22 -11 -10 26 -7 46 7 42 6 -3 13 -17 15 -31z
m-981 -22 c2 -5 -8 -10 -21 -10 -15 0 -22 5 -18 13 5 15 34 12 39 -3z m983
-40 c0 -16 -35 -21 -44 -6 -8 12 4 21 26 21 10 0 18 -7 18 -15z m-769 -991
c13 -16 64 -16 114 0 14 4 31 -3 54 -22 27 -23 34 -36 35 -68 1 -34 -2 -39
-23 -42 -15 -2 -37 8 -62 27 -21 17 -48 35 -60 39 -34 13 -148 -8 -187 -34
-19 -13 -40 -24 -47 -24 -18 0 -83 28 -89 39 -7 12 72 41 111 41 18 0 36 6 40
13 11 16 64 46 84 47 9 0 22 -7 30 -16z m-308 -79 c18 -17 11 -52 -12 -64 -35
-18 -90 -22 -124 -7 -50 20 -51 29 -4 59 47 31 116 37 140 12z m-543 -554 c0
-5 -9 -13 -20 -16 -11 -4 -21 -16 -21 -28 -1 -16 -2 -18 -6 -5 -6 22 14 58 32
58 8 0 15 -4 15 -9z"/>
<path d="M13220 6370 c0 -5 5 -10 10 -10 6 0 10 5 10 10 0 6 -4 10 -10 10 -5
0 -10 -4 -10 -10z"/>
<path d="M4499 5847 c-8 -7 -23 -39 -34 -72 -10 -33 -29 -71 -42 -84 -12 -13
-23 -30 -23 -38 0 -35 -63 -168 -111 -233 -49 -67 -51 -74 -47 -120 3 -27 1
-47 -4 -44 -4 3 -8 0 -8 -6 0 -6 -8 -14 -17 -17 -27 -10 -123 -115 -130 -141
-3 -12 -6 -46 -7 -74 -1 -50 0 -53 34 -69 35 -17 112 -31 187 -33 22 0 45 -4
49 -8 33 -34 57 52 53 194 -3 89 16 240 47 390 8 37 14 100 14 141 0 60 5 83
24 118 21 39 43 110 34 109 -2 0 -10 -6 -19 -13z"/>
<path d="M4065 5548 c-23 -14 -45 -34 -45 -43 0 -10 -34 -41 -52 -48 -11 -4
-18 -19 -20 -43 -4 -46 -38 -69 -118 -79 -30 -4 -83 -18 -117 -31 -34 -13 -72
-24 -85 -24 -49 0 -65 -48 -24 -70 32 -16 38 -34 24 -65 -8 -19 -7 -31 6 -59
9 -20 23 -36 31 -36 8 0 15 -5 15 -11 0 -6 6 -9 14 -6 20 8 87 -18 98 -37 5
-9 22 -16 38 -16 41 0 107 77 116 136 4 30 19 60 45 93 55 69 64 135 23 176
-19 19 -11 45 14 45 40 0 91 84 69 114 -10 12 -16 13 -32 4z m-340 -357 c0
-23 -19 -23 -33 0 -12 19 -11 20 10 17 13 -2 23 -9 23 -17z m55 -113 c0 -19
-2 -20 -10 -8 -13 19 -13 30 0 30 6 0 10 -10 10 -22z"/>
<path d="M6271 5519 c-14 -6 -30 -8 -37 -5 -18 7 -55 -37 -64 -78 -6 -29 -5
-36 10 -41 9 -3 29 -1 43 4 13 5 34 7 44 5 27 -7 45 19 47 66 1 48 -11 61 -43
49z"/>
<path d="M7036 4848 c-3 -7 -6 -20 -9 -28 -6 -21 11 -50 29 -50 12 0 14 10 12
42 -3 40 -24 64 -32 36z"/>
<path d="M5499 4788 c-45 -15 -64 -78 -24 -78 8 0 26 11 41 25 21 19 25 29 18
44 -7 15 -14 17 -35 9z"/>
<path d="M4340 4695 c-10 -12 -57 -32 -93 -39 -7 -2 -29 -6 -50 -11 -21 -4
-43 -15 -50 -25 -6 -9 -22 -22 -34 -28 -11 -7 -31 -28 -43 -47 -21 -33 -21
-37 -6 -60 17 -25 59 -34 71 -15 3 6 27 10 52 10 38 0 55 7 107 46 33 26 66
48 73 51 16 6 25 49 17 88 -7 38 -27 51 -44 30z"/>
<path d="M13200 4555 c0 -8 5 -15 10 -15 6 0 10 7 10 15 0 8 -4 15 -10 15 -5
0 -10 -7 -10 -15z"/>
<path d="M13075 4533 c-11 -3 -36 -22 -55 -42 -20 -20 -58 -49 -85 -65 -47
-27 -135 -108 -135 -124 0 -4 -10 -12 -22 -17 -23 -11 -62 -71 -53 -84 11 -18
63 -18 114 0 30 10 57 23 60 27 3 5 29 23 56 42 155 104 235 188 235 246 0 22
-4 24 -47 23 -27 -1 -57 -4 -68 -6z"/>
<path d="M9046 4315 c-19 -29 -10 -50 17 -40 22 9 30 36 14 52 -12 12 -17 10
-31 -12z"/>
<path d="M13221 4207 c-8 -18 -22 -41 -32 -52 -16 -18 -18 -31 -12 -88 8 -85
18 -94 74 -66 76 39 139 122 103 136 -8 3 -14 16 -14 29 0 12 -11 35 -24 51
-20 24 -26 25 -40 14 -11 -10 -20 -10 -29 -3 -10 8 -16 3 -26 -21z"/>
<path d="M12375 4192 c-31 -6 -38 -17 -30 -52 7 -30 9 -32 39 -25 17 4 56 8
86 9 84 3 90 5 90 24 0 32 -110 59 -185 44z"/>
<path d="M12670 3977 c-14 -13 -31 -31 -39 -40 -13 -17 -12 -18 15 -13 26 5
74 49 74 69 0 14 -25 6 -50 -16z"/>
<path d="M6205 3944 c-20 -21 -42 -50 -47 -66 -7 -18 -15 -27 -24 -24 -7 3
-16 1 -18 -3 -3 -5 -24 -8 -47 -8 -24 0 -47 -7 -57 -16 -14 -15 -13 -20 12
-67 31 -56 31 -96 1 -116 -25 -17 -65 0 -80 33 -12 29 -62 50 -83 36 -22 -13
-27 -33 -9 -33 21 0 25 -19 13 -58 -7 -25 -20 -38 -53 -53 l-43 -19 -42 22
c-51 26 -74 24 -109 -8 -14 -13 -32 -24 -40 -24 -8 0 -37 -14 -63 -30 -41 -26
-47 -34 -41 -53 21 -66 -7 -84 -102 -65 l-54 11 -37 -36 c-36 -35 -37 -38 -36
-109 l0 -73 35 -1 c19 0 56 -10 83 -22 27 -12 54 -22 60 -22 7 0 16 -4 22 -9
14 -14 188 -31 309 -31 61 0 132 -6 160 -13 28 -8 68 -12 89 -9 21 2 62 -1 90
-8 49 -12 55 -11 103 13 45 24 56 25 114 17 35 -4 98 -5 139 -1 41 3 122 3
180 -1 88 -6 107 -5 122 9 14 13 20 13 33 3 8 -7 15 -21 15 -32 0 -11 7 -26
15 -34 25 -26 30 8 12 89 -9 40 -19 88 -22 108 -3 21 -14 48 -25 62 -23 29
-76 192 -129 397 -21 80 -46 160 -55 179 -17 31 -20 33 -58 27 -34 -6 -40 -4
-45 14 -7 26 -11 25 -39 -6 -24 -25 -31 -44 -16 -44 4 0 8 -8 8 -18 0 -16 -5
-18 -35 -11 -19 4 -47 5 -61 2 -32 -6 -46 17 -28 46 9 15 5 24 -28 54 -21 20
-42 37 -45 37 -3 0 -23 -16 -44 -36z"/>
<path d="M12420 3914 c-77 -15 -220 -79 -228 -102 -8 -24 121 -11 255 24 51
14 114 56 102 68 -9 9 -99 15 -129 10z"/>
<path d="M13091 3884 c-18 -18 -54 -40 -80 -49 -25 -10 -60 -31 -76 -46 -17
-16 -34 -29 -39 -29 -11 0 -31 -22 -39 -42 -3 -10 -13 -18 -20 -18 -8 0 -20
-6 -26 -14 -10 -11 -3 -13 36 -9 27 3 55 7 63 10 8 4 28 7 45 9 16 1 37 11 46
23 10 12 24 21 33 21 9 0 16 4 16 8 0 5 13 9 30 9 34 0 69 36 70 73 0 14 7 36
15 50 20 35 19 39 -12 37 -16 -1 -43 -15 -62 -33z"/>
<path d="M8452 3813 c-22 -9 -35 -43 -21 -59 17 -21 43 -17 69 11 19 20 21 27
10 40 -12 15 -33 18 -58 8z"/>
<path d="M7559 3649 c-10 -6 -11 -11 -2 -20 13 -13 45 -9 50 7 5 15 -31 24
-48 13z"/>
<path d="M12743 3628 c-26 -17 -65 -33 -97 -38 -84 -14 -151 -55 -140 -85 8
-19 54 -19 99 -1 18 8 36 12 39 9 3 -3 11 -1 18 4 7 6 24 14 37 18 48 15 118
103 94 118 -4 3 -27 -8 -50 -25z"/>
<path d="M8071 3641 c-18 -12 3 -51 29 -51 27 0 32 13 14 38 -17 24 -22 26
-43 13z"/>
<path d="M7960 3591 c0 -5 -9 -13 -20 -16 -25 -8 -26 -24 -2 -41 24 -19 29
-17 48 11 13 20 14 28 4 40 -14 17 -30 20 -30 6z"/>
<path d="M5178 3543 c7 -3 16 -2 19 1 4 3 -2 6 -13 5 -11 0 -14 -3 -6 -6z"/>
<path d="M6895 3490 c-3 -5 -19 -10 -35 -10 -40 0 -45 -15 -22 -63 21 -44 42
-121 43 -160 1 -46 42 -111 84 -132 22 -12 51 -28 65 -38 13 -9 34 -17 46 -17
12 0 25 -7 28 -16 4 -9 9 -14 13 -11 3 4 15 0 27 -8 11 -8 34 -15 51 -15 17 0
36 -5 42 -11 19 -19 85 -20 136 -2 26 9 47 20 47 24 0 4 14 12 30 19 17 7 28
18 25 24 -3 6 -8 19 -11 29 -4 11 -13 16 -22 12 -22 -8 -82 5 -82 19 0 7 6 24
13 39 19 43 61 37 111 -16 25 -25 48 -41 59 -39 24 5 21 27 -8 50 -29 23 -30
30 -10 52 13 15 13 19 -5 38 -12 12 -30 22 -40 22 -11 0 -20 5 -20 11 0 8 -21
9 -67 4 -72 -7 -123 5 -123 28 0 22 -63 78 -103 92 -20 7 -62 16 -92 20 -30 3
-57 11 -60 16 -8 12 -84 49 -101 49 -7 0 -16 -4 -19 -10z"/>
<path d="M7343 3456 c-13 -12 -23 -31 -23 -43 0 -43 54 -70 79 -39 13 15 5 66
-10 66 -5 0 -9 6 -9 14 0 24 -14 25 -37 2z"/>
<path d="M4990 3350 c0 -5 7 -10 16 -10 8 0 12 5 9 10 -3 6 -10 10 -16 10 -5
0 -9 -4 -9 -10z"/>
</g>
</svg>
